STARTFONT 2.1
FONT -HP-HP User-Bold-R-Normal-Serif-15-150-72-72-M-110-HP-Roman8
SIZE 15 72 72
FONTBOUNDINGBOX 11 19 0 -4

STARTPROPERTIES 27
COPYRIGHT "(c) Copyright 1994, Hewlett Packard Company"
NOTICE "Created by the User Interaction Design Group, July 1994."
NOTICE "Hewlett Packard Company, 3000 Hanover St., Palo Alto, CA 94303, USA"
FONTNAME_REGISTRY ""
FOUNDRY "HP"
FAMILY_NAME "HP User"
WEIGHT_NAME "Bold"
SLANT "R"
ADD_STYLE_NAME "Serif"
SETWIDTH_NAME "Normal"
PIXEL_SIZE 15
POINT_SIZE 150
RESOLUTION_X 72
RESOLUTION_Y 72
SPACING "M"
AVERAGE_WIDTH 110
CHARSET_REGISTRY "HP"
CHARSET_ENCODING "Roman8"
CHARSET_COLLECTIONS "HP-Roman8"
FULL_NAME "HP User11x19B"
CAP_HEIGHT 12
X_HEIGHT 8
WEIGHT 10
QUAD_WIDTH 11
DEFAULT_CHAR 32
FONT_DESCENT 4
FONT_ASCENT 15
ENDPROPERTIES

CHARS 222

STARTCHAR Null
ENCODING 0
SWIDTH 733 0
DWIDTH 11 0
BBX 11 19 0 -4
BITMAP
0000
6400
7400
5C00
4C00
4400
0000
1900
1900
1900
1900
0E00
0000
0600
0600
0600
0600
0780
0000
ENDCHAR

STARTCHAR StartOfHeading
ENCODING 1
SWIDTH 733 0
DWIDTH 11 0
BBX 11 19 0 -4
BITMAP
0000
3800
6000
3000
1800
7000
0000
0E00
1900
1900
1900
0E00
0000
0640
0640
07C0
0640
0640
0000
ENDCHAR

STARTCHAR StartOfText
ENCODING 2
SWIDTH 733 0
DWIDTH 11 0
BBX 11 19 0 -4
BITMAP
0000
3800
6000
3000
1800
7000
0000
3F00
0C00
0C00
0C00
0C00
0000
0C40
0680
0300
0580
08C0
0000
ENDCHAR

STARTCHAR EndOfText
ENCODING 3
SWIDTH 733 0
DWIDTH 11 0
BBX 11 19 0 -4
BITMAP
0000
7C00
6000
7800
6000
7C00
0000
3F00
0C00
0C00
0C00
0C00
0000
0C40
0680
0300
0580
08C0
0000
ENDCHAR

STARTCHAR EndOfTransmit
ENCODING 4
SWIDTH 733 0
DWIDTH 11 0
BBX 11 19 0 -4
BITMAP
0000
7C00
6000
7800
6000
7C00
0000
0E00
1900
1900
1900
0E00
0000
07E0
0180
0180
0180
0180
0000
ENDCHAR

STARTCHAR Enquiry
ENCODING 5
SWIDTH 733 0
DWIDTH 11 0
BBX 11 19 0 -4
BITMAP
0000
7C00
6000
7800
6000
7C00
0000
1900
1D00
1700
1300
1100
0000
01C0
0320
0320
03A0
01C0
0060
ENDCHAR

STARTCHAR Acknowledge
ENCODING 6
SWIDTH 733 0
DWIDTH 11 0
BBX 11 19 0 -4
BITMAP
0000
3800
6400
7C00
6400
6400
0000
0E00
1900
1800
1900
0E00
0000
0320
0340
03C0
0360
0320
0000
ENDCHAR

STARTCHAR Bell
ENCODING 7
SWIDTH 733 0
DWIDTH 11 0
BBX 11 19 0 -4
BITMAP
0000
0100
0200
0600
0F00
1B80
1180
30C0
20C0
20C0
20C0
20C0
6060
4060
7FE0
0300
0380
0100
0000
ENDCHAR

STARTCHAR BackSpace
ENCODING 8
SWIDTH 733 0
DWIDTH 11 0
BBX 11 19 0 -4
BITMAP
0000
7E00
3300
3300
3E00
3300
3300
7E00
0000
01C0
0320
0380
01C0
00E0
0260
01C0
0000
0000
0000
ENDCHAR

STARTCHAR HorizontalTab
ENCODING 9
SWIDTH 733 0
DWIDTH 11 0
BBX 11 19 0 -4
BITMAP
0000
6600
6600
6600
7E00
6600
6600
6600
0000
0FC0
0300
0300
0300
0300
0300
0300
0000
0000
0000
ENDCHAR

STARTCHAR LineFeed
ENCODING 10
SWIDTH 733 0
DWIDTH 11 0
BBX 11 19 0 -4
BITMAP
0000
6000
6000
6000
6000
6000
6000
7C00
0000
07C0
0600
0600
0780
0600
0600
0600
0000
0000
0000
ENDCHAR

STARTCHAR VerticalTab
ENCODING 11
SWIDTH 733 0
DWIDTH 11 0
BBX 11 19 0 -4
BITMAP
0000
6100
6300
3200
3600
1C00
1C00
0800
0000
0FC0
0300
0300
0300
0300
0300
0300
0000
0000
0000
ENDCHAR

STARTCHAR FormFeed
ENCODING 12
SWIDTH 733 0
DWIDTH 11 0
BBX 11 19 0 -4
BITMAP
0000
7C00
6000
6000
7800
6000
6000
6000
0000
07C0
0600
0600
0780
0600
0600
0600
0000
0000
0000
ENDCHAR

STARTCHAR CarriageReturn
ENCODING 13
SWIDTH 733 0
DWIDTH 11 0
BBX 11 19 0 -4
BITMAP
0000
3800
6400
6000
6000
6000
6400
3800
0000
0780
0640
0640
0780
0680
0640
0640
0000
0000
0000
ENDCHAR

STARTCHAR ShiftOut
ENCODING 14
SWIDTH 733 0
DWIDTH 11 0
BBX 11 19 0 -4
BITMAP
0000
3800
6400
7000
3800
1C00
4C00
3800
0000
0380
0640
0640
0640
0640
0640
0380
0000
0000
0000
ENDCHAR

STARTCHAR ShiftIn
ENCODING 15
SWIDTH 733 0
DWIDTH 11 0
BBX 11 19 0 -4
BITMAP
0000
3800
6400
7000
3800
1C00
4C00
3800
0000
03C0
0180
0180
0180
0180
0180
03C0
0000
0000
0000
ENDCHAR

STARTCHAR DataLinkEscape
ENCODING 16
SWIDTH 733 0
DWIDTH 11 0
BBX 11 19 0 -4
BITMAP
0000
7C00
3200
3200
3200
7C00
0000
0C00
0C00
0C00
0C00
0F00
0000
03E0
0300
03C0
0300
03E0
0000
ENDCHAR

STARTCHAR DevCtrl1orXon
ENCODING 17
SWIDTH 733 0
DWIDTH 11 0
BBX 11 19 0 -4
BITMAP
0000
7C00
3200
3200
3200
7C00
0000
0E00
1900
1800
1900
0E00
0000
0180
0380
0180
0180
0180
0000
ENDCHAR

STARTCHAR DeviceControl2
ENCODING 18
SWIDTH 733 0
DWIDTH 11 0
BBX 11 19 0 -4
BITMAP
0000
7C00
3200
3200
3200
7C00
0000
0E00
1900
1800
1900
0E00
0000
0380
04C0
0180
0300
07C0
0000
ENDCHAR

STARTCHAR DevCtrl3orXoff
ENCODING 19
SWIDTH 733 0
DWIDTH 11 0
BBX 11 19 0 -4
BITMAP
0000
7C00
3200
3200
3200
7C00
0000
0E00
1900
1800
1900
0E00
0000
0780
00C0
0380
00C0
0780
0000
ENDCHAR

STARTCHAR DeviceControl4
ENCODING 20
SWIDTH 733 0
DWIDTH 11 0
BBX 11 19 0 -4
BITMAP
0000
7C00
3200
3200
3200
7C00
0000
0E00
1900
1800
1900
0E00
00C0
01C0
02C0
04C0
07E0
00C0
0000
ENDCHAR

STARTCHAR NegAcknowledge
ENCODING 21
SWIDTH 733 0
DWIDTH 11 0
BBX 11 19 0 -4
BITMAP
0000
6400
7400
5C00
4C00
4400
0000
0E00
1900
1F00
1900
1900
0000
0320
0340
03C0
0360
0320
0000
ENDCHAR

STARTCHAR SynchronusIdle
ENCODING 22
SWIDTH 733 0
DWIDTH 11 0
BBX 11 19 0 -4
BITMAP
0000
3800
6000
3000
1800
7000
0000
1880
0D00
0600
0600
0600
0000
0320
03A0
02E0
0260
0220
0000
ENDCHAR

STARTCHAR EndTransmit
ENCODING 23
SWIDTH 733 0
DWIDTH 11 0
BBX 11 19 0 -4
BITMAP
0000
7C00
6000
7800
6000
7C00
0000
3F00
0C00
0C00
0C00
0C00
0000
07C0
0320
03C0
0320
07C0
0000
ENDCHAR

STARTCHAR Cancel
ENCODING 24
SWIDTH 733 0
DWIDTH 11 0
BBX 11 19 0 -4
BITMAP
0000
3800
6400
6000
6400
3800
0000
0E00
1900
1F00
1900
1900
0000
0320
03A0
02E0
0260
0220
0000
ENDCHAR

STARTCHAR EndOfMedium
ENCODING 25
SWIDTH 733 0
DWIDTH 11 0
BBX 11 19 0 -4
BITMAP
0000
7C00
6000
6000
7800
6000
6000
7C00
0000
0C60
0EE0
0FE0
0D60
0C60
0C60
0C60
0000
0000
0000
ENDCHAR

STARTCHAR Substitute
ENCODING 26
SWIDTH 733 0
DWIDTH 11 0
BBX 11 19 0 -4
BITMAP
0000
3800
6000
3000
1800
7000
0000
1900
1900
1900
1900
0E00
0000
07C0
0320
03C0
0320
07C0
0000
ENDCHAR

STARTCHAR Escape
ENCODING 27
SWIDTH 733 0
DWIDTH 11 0
BBX 11 19 0 -4
BITMAP
0000
7C00
6000
7800
6000
7C00
0000
0700
0C00
0600
0300
0E00
0000
01C0
0320
0300
0320
01C0
0000
ENDCHAR

STARTCHAR FileSeparator
ENCODING 28
SWIDTH 733 0
DWIDTH 11 0
BBX 11 19 0 -4
BITMAP
0000
7C00
6000
6000
7800
6000
6000
6000
0000
0380
0640
0700
0380
01C0
04C0
0380
0000
0000
0000
ENDCHAR

STARTCHAR GroupSeparator
ENCODING 29
SWIDTH 733 0
DWIDTH 11 0
BBX 11 19 0 -4
BITMAP
0000
3800
6400
6000
6C00
6400
6400
3800
0000
0380
0640
0700
0380
01C0
04C0
0380
0000
0000
0000
ENDCHAR

STARTCHAR RecordSeparatr
ENCODING 30
SWIDTH 733 0
DWIDTH 11 0
BBX 11 19 0 -4
BITMAP
0000
7800
6400
6400
7800
6800
6400
6400
0000
0380
0640
0700
0380
01C0
04C0
0380
0000
0000
0000
ENDCHAR

STARTCHAR UnitSeparator
ENCODING 31
SWIDTH 733 0
DWIDTH 11 0
BBX 11 19 0 -4
BITMAP
0000
6400
6400
6400
6400
6400
6400
3800
0000
0380
0640
0700
0380
01C0
04C0
0380
0000
0000
0000
ENDCHAR

STARTCHAR PrintableSpace
ENCODING 32
SWIDTH 733 0
DWIDTH 11 0
BBX 11 19 0 -4
BITMAP
0000
0000
0000
0000
0000
0000
0000
0000
0000
0000
0000
0000
0000
0000
0000
0000
0000
0000
0000
ENDCHAR

STARTCHAR Exclamation
ENCODING 33
SWIDTH 733 0
DWIDTH 11 0
BBX 11 19 0 -4
BITMAP
0000
0000
0E00
0E00
0E00
0E00
0E00
0E00
0E00
0E00
0E00
0000
0000
0400
0E00
0E00
0400
0000
0000
ENDCHAR

STARTCHAR NeutrlDblQuote
ENCODING 34
SWIDTH 733 0
DWIDTH 11 0
BBX 11 19 0 -4
BITMAP
0000
0000
1B00
1B00
1B00
1200
1200
0000
0000
0000
0000
0000
0000
0000
0000
0000
0000
0000
0000
ENDCHAR

STARTCHAR NumberSign
ENCODING 35
SWIDTH 733 0
DWIDTH 11 0
BBX 11 19 0 -4
BITMAP
0000
0000
1980
1980
1980
7FE0
7FE0
1980
1980
1980
7FE0
7FE0
1980
1980
1980
1980
0000
0000
0000
ENDCHAR

STARTCHAR DollarSign
ENCODING 36
SWIDTH 733 0
DWIDTH 11 0
BBX 11 19 0 -4
BITMAP
0000
0600
0600
1FC0
38C0
3840
3800
3C00
1F00
0F80
03C0
01C0
21C0
31C0
3F80
0600
0600
0000
0000
ENDCHAR

STARTCHAR PerCentSign
ENCODING 37
SWIDTH 733 0
DWIDTH 11 0
BBX 11 19 0 -4
BITMAP
0000
0000
78C0
CCC0
CD80
CD80
7B00
0600
0600
0C00
0C00
1BC0
3660
3660
6660
63C0
0000
0000
0000
ENDCHAR

STARTCHAR Ampersand
ENCODING 38
SWIDTH 733 0
DWIDTH 11 0
BBX 11 19 0 -4
BITMAP
0000
0000
1E00
3300
3300
3600
1E00
1C00
1C00
3EE0
36C0
6780
6380
6380
73C0
3EE0
0000
0000
0000
ENDCHAR

STARTCHAR SingleCloseQut
ENCODING 39
SWIDTH 733 0
DWIDTH 11 0
BBX 11 19 0 -4
BITMAP
0000
0000
0E00
0E00
0E00
0600
0C00
1800
0000
0000
0000
0000
0000
0000
0000
0000
0000
0000
0000
ENDCHAR

STARTCHAR OpenParen
ENCODING 40
SWIDTH 733 0
DWIDTH 11 0
BBX 11 19 0 -4
BITMAP
0000
0300
0600
0E00
0C00
1C00
1C00
1C00
1C00
1C00
1C00
1C00
1C00
0C00
0E00
0600
0300
0000
0000
ENDCHAR

STARTCHAR CloseParen
ENCODING 41
SWIDTH 733 0
DWIDTH 11 0
BBX 11 19 0 -4
BITMAP
0000
1800
0C00
0E00
0600
0700
0700
0700
0700
0700
0700
0700
0700
0600
0E00
0C00
1800
0000
0000
ENDCHAR

STARTCHAR Asterisk
ENCODING 42
SWIDTH 733 0
DWIDTH 11 0
BBX 11 19 0 -4
BITMAP
0000
0000
0000
0000
0000
0600
36C0
36C0
0F00
0F00
36C0
36C0
0600
0000
0000
0000
0000
0000
0000
ENDCHAR

STARTCHAR PlusSign
ENCODING 43
SWIDTH 733 0
DWIDTH 11 0
BBX 11 19 0 -4
BITMAP
0000
0000
0000
0000
0600
0600
0600
0600
7FE0
7FE0
0600
0600
0600
0600
0000
0000
0000
0000
0000
ENDCHAR

STARTCHAR Comma
ENCODING 44
SWIDTH 733 0
DWIDTH 11 0
BBX 11 19 0 -4
BITMAP
0000
0000
0000
0000
0000
0000
0000
0000
0000
0000
0000
0000
0E00
0E00
0E00
0600
0C00
1800
0000
ENDCHAR

STARTCHAR Hyphen
ENCODING 45
SWIDTH 733 0
DWIDTH 11 0
BBX 11 19 0 -4
BITMAP
0000
0000
0000
0000
0000
0000
0000
0000
7FE0
7FE0
0000
0000
0000
0000
0000
0000
0000
0000
0000
ENDCHAR

STARTCHAR Period
ENCODING 46
SWIDTH 733 0
DWIDTH 11 0
BBX 11 19 0 -4
BITMAP
0000
0000
0000
0000
0000
0000
0000
0000
0000
0000
0000
0000
0E00
0E00
0E00
0000
0000
0000
0000
ENDCHAR

STARTCHAR Slash
ENCODING 47
SWIDTH 733 0
DWIDTH 11 0
BBX 11 19 0 -4
BITMAP
0000
00C0
00C0
0180
0180
0300
0300
0600
0600
0C00
0C00
1800
1800
3000
3000
6000
6000
0000
0000
ENDCHAR

STARTCHAR Zero
ENCODING 48
SWIDTH 733 0
DWIDTH 11 0
BBX 11 19 0 -4
BITMAP
0000
0000
0000
0E00
3B80
3180
71C0
60C0
64C0
64C0
60C0
71C0
3180
3B80
0E00
0000
0000
0000
0000
ENDCHAR

STARTCHAR One
ENCODING 49
SWIDTH 733 0
DWIDTH 11 0
BBX 11 19 0 -4
BITMAP
0000
0000
0000
0600
0E00
1E00
3600
0600
0600
0600
0600
0600
0600
0600
0600
0000
0000
0000
0000
ENDCHAR

STARTCHAR Two
ENCODING 50
SWIDTH 733 0
DWIDTH 11 0
BBX 11 19 0 -4
BITMAP
0000
0000
0000
0F00
1B80
31C0
31C0
01C0
0180
0300
0600
0C00
1840
3FC0
3FC0
0000
0000
0000
0000
ENDCHAR

STARTCHAR Three
ENCODING 51
SWIDTH 733 0
DWIDTH 11 0
BBX 11 19 0 -4
BITMAP
0000
0000
0000
0F00
1B80
31C0
01C0
0380
0F00
0380
01C0
01C0
31C0
3380
1F00
0000
0000
0000
0000
ENDCHAR

STARTCHAR Four
ENCODING 52
SWIDTH 733 0
DWIDTH 11 0
BBX 11 19 0 -4
BITMAP
0000
0000
0600
0600
0C00
0C00
1800
1900
3300
3300
7FC0
7FC0
0300
0300
0300
0000
0000
0000
0000
ENDCHAR

STARTCHAR Five
ENCODING 53
SWIDTH 733 0
DWIDTH 11 0
BBX 11 19 0 -4
BITMAP
0000
0000
0000
1FC0
1800
1800
1800
1F00
0380
01C0
01C0
01C0
31C0
3380
1F00
0000
0000
0000
0000
ENDCHAR

STARTCHAR Six
ENCODING 54
SWIDTH 733 0
DWIDTH 11 0
BBX 11 19 0 -4
BITMAP
0000
0000
0000
0380
0E00
1C00
1800
3F00
3D80
38C0
38C0
38C0
38C0
1D80
0F00
0000
0000
0000
0000
ENDCHAR

STARTCHAR Seven
ENCODING 55
SWIDTH 733 0
DWIDTH 11 0
BBX 11 19 0 -4
BITMAP
0000
0000
0000
3FC0
3FC0
2180
0180
0300
0300
0600
0600
0600
0C00
0C00
0C00
0000
0000
0000
0000
ENDCHAR

STARTCHAR Eight
ENCODING 56
SWIDTH 733 0
DWIDTH 11 0
BBX 11 19 0 -4
BITMAP
0000
0000
0000
0F00
1980
39C0
39C0
1D80
0F00
1B80
39C0
39C0
39C0
1980
0F00
0000
0000
0000
0000
ENDCHAR

STARTCHAR Nine
ENCODING 57
SWIDTH 733 0
DWIDTH 11 0
BBX 11 19 0 -4
BITMAP
0000
0000
0000
0F00
1B80
31C0
31C0
31C0
31C0
1BC0
0FC0
0180
0380
0700
1C00
0000
0000
0000
0000
ENDCHAR

STARTCHAR Colon
ENCODING 58
SWIDTH 733 0
DWIDTH 11 0
BBX 11 19 0 -4
BITMAP
0000
0000
0000
0000
0000
0000
0000
0E00
0E00
0E00
0000
0000
0E00
0E00
0E00
0000
0000
0000
0000
ENDCHAR

STARTCHAR Simicolon
ENCODING 59
SWIDTH 733 0
DWIDTH 11 0
BBX 11 19 0 -4
BITMAP
0000
0000
0000
0000
0000
0000
0000
0E00
0E00
0E00
0000
0000
0E00
0E00
0E00
0600
0C00
1800
0000
ENDCHAR

STARTCHAR LessThanSign
ENCODING 60
SWIDTH 733 0
DWIDTH 11 0
BBX 11 19 0 -4
BITMAP
0000
0000
0000
0000
0060
01E0
0780
1E00
7800
7800
1E00
0780
01E0
0060
0000
0000
0000
0000
0000
ENDCHAR

STARTCHAR EqualsSign
ENCODING 61
SWIDTH 733 0
DWIDTH 11 0
BBX 11 19 0 -4
BITMAP
0000
0000
0000
0000
0000
0000
7FE0
7FE0
0000
0000
7FE0
7FE0
0000
0000
0000
0000
0000
0000
0000
ENDCHAR

STARTCHAR GreatrThanSign
ENCODING 62
SWIDTH 733 0
DWIDTH 11 0
BBX 11 19 0 -4
BITMAP
0000
0000
0000
0000
6000
7800
1E00
0780
01E0
01E0
0780
1E00
7800
6000
0000
0000
0000
0000
0000
ENDCHAR

STARTCHAR QuestionMark
ENCODING 63
SWIDTH 733 0
DWIDTH 11 0
BBX 11 19 0 -4
BITMAP
0000
0000
1F00
3B80
31C0
31C0
01C0
0380
0700
0E00
0E00
0400
0000
0E00
0E00
0E00
0000
0000
0000
ENDCHAR

STARTCHAR CommerclAtSign
ENCODING 64
SWIDTH 733 0
DWIDTH 11 0
BBX 11 19 0 -4
BITMAP
0000
0000
0F00
39C0
30C0
6060
6720
6DA0
6DA0
6DA0
6DA0
66C0
6000
3060
38C0
0F80
0000
0000
0000
ENDCHAR

STARTCHAR A
ENCODING 65
SWIDTH 733 0
DWIDTH 11 0
BBX 11 19 0 -4
BITMAP
0000
0000
0000
0E00
0E00
0E00
1F00
1700
1700
3380
3F80
2380
61C0
61C0
F3E0
0000
0000
0000
0000
ENDCHAR

STARTCHAR B
ENCODING 66
SWIDTH 733 0
DWIDTH 11 0
BBX 11 19 0 -4
BITMAP
0000
0000
0000
7F80
39C0
38C0
38C0
3980
3F80
39C0
38E0
38E0
38E0
39C0
7F80
0000
0000
0000
0000
ENDCHAR

STARTCHAR C
ENCODING 67
SWIDTH 733 0
DWIDTH 11 0
BBX 11 19 0 -4
BITMAP
0000
0000
0000
0FC0
38C0
30C0
7000
7000
7000
7000
7000
7000
30C0
38C0
0F80
0000
0000
0000
0000
ENDCHAR

STARTCHAR D
ENCODING 68
SWIDTH 733 0
DWIDTH 11 0
BBX 11 19 0 -4
BITMAP
0000
0000
0000
7F00
39C0
38C0
38E0
38E0
38E0
38E0
38E0
38E0
38C0
39C0
7F00
0000
0000
0000
0000
ENDCHAR

STARTCHAR E
ENCODING 69
SWIDTH 733 0
DWIDTH 11 0
BBX 11 19 0 -4
BITMAP
0000
0000
0000
7FC0
38C0
3840
3800
3900
3F00
3900
3800
3800
3840
38C0
7FC0
0000
0000
0000
0000
ENDCHAR

STARTCHAR F
ENCODING 70
SWIDTH 733 0
DWIDTH 11 0
BBX 11 19 0 -4
BITMAP
0000
0000
0000
7FC0
38C0
3840
3800
3900
3F00
3900
3800
3800
3800
3800
7E00
0000
0000
0000
0000
ENDCHAR

STARTCHAR G
ENCODING 71
SWIDTH 733 0
DWIDTH 11 0
BBX 11 19 0 -4
BITMAP
0000
0000
0000
0FC0
38C0
30C0
7000
7000
7000
73E0
71C0
71C0
31C0
39C0
0F80
0000
0000
0000
0000
ENDCHAR

STARTCHAR H
ENCODING 72
SWIDTH 733 0
DWIDTH 11 0
BBX 11 19 0 -4
BITMAP
0000
0000
0000
7DE0
39C0
39C0
39C0
39C0
3FC0
39C0
39C0
39C0
39C0
39C0
7DE0
0000
0000
0000
0000
ENDCHAR

STARTCHAR I
ENCODING 73
SWIDTH 733 0
DWIDTH 11 0
BBX 11 19 0 -4
BITMAP
0000
0000
0000
3F80
0E00
0E00
0E00
0E00
0E00
0E00
0E00
0E00
0E00
0E00
3F80
0000
0000
0000
0000
ENDCHAR

STARTCHAR J
ENCODING 74
SWIDTH 733 0
DWIDTH 11 0
BBX 11 19 0 -4
BITMAP
0000
0000
0000
0FC0
0380
0380
0380
0380
0380
0380
0380
6380
6380
3700
1E00
0000
0000
0000
0000
ENDCHAR

STARTCHAR K
ENCODING 75
SWIDTH 733 0
DWIDTH 11 0
BBX 11 19 0 -4
BITMAP
0000
0000
0000
7CE0
38C0
3980
3B00
3E00
3E00
3F00
3B00
3B80
3980
39C0
7CE0
0000
0000
0000
0000
ENDCHAR

STARTCHAR L
ENCODING 76
SWIDTH 733 0
DWIDTH 11 0
BBX 11 19 0 -4
BITMAP
0000
0000
0000
7C00
3800
3800
3800
3800
3800
3800
3800
3800
3840
38C0
7FC0
0000
0000
0000
0000
ENDCHAR

STARTCHAR M
ENCODING 77
SWIDTH 733 0
DWIDTH 11 0
BBX 11 19 0 -4
BITMAP
0000
0000
0000
E0E0
71C0
71C0
7BC0
7BC0
7FC0
6EC0
6EC0
64C0
64C0
60C0
F1E0
0000
0000
0000
0000
ENDCHAR

STARTCHAR N
ENCODING 78
SWIDTH 733 0
DWIDTH 11 0
BBX 11 19 0 -4
BITMAP
0000
0000
0000
71E0
38C0
38C0
3CC0
3CC0
3EC0
36C0
37C0
33C0
33C0
31C0
79C0
0000
0000
0000
0000
ENDCHAR

STARTCHAR O
ENCODING 79
SWIDTH 733 0
DWIDTH 11 0
BBX 11 19 0 -4
BITMAP
0000
0000
0000
0F00
39C0
30C0
70E0
70E0
70E0
70E0
70E0
70E0
30C0
39C0
0F00
0000
0000
0000
0000
ENDCHAR

STARTCHAR P
ENCODING 80
SWIDTH 733 0
DWIDTH 11 0
BBX 11 19 0 -4
BITMAP
0000
0000
0000
7F80
38C0
38E0
38E0
38E0
38C0
3F80
3800
3800
3800
3800
7E00
0000
0000
0000
0000
ENDCHAR

STARTCHAR Q
ENCODING 81
SWIDTH 733 0
DWIDTH 11 0
BBX 11 19 0 -4
BITMAP
0000
0000
0000
0F00
39C0
30C0
70E0
70E0
70E0
70E0
70E0
70E0
36C0
3BC0
0F80
0180
00C0
0060
0000
ENDCHAR

STARTCHAR R
ENCODING 82
SWIDTH 733 0
DWIDTH 11 0
BBX 11 19 0 -4
BITMAP
0000
0000
0000
FF00
7380
7180
7180
7380
7F00
7700
7300
7380
7180
71C0
F8E0
0000
0000
0000
0000
ENDCHAR

STARTCHAR S
ENCODING 83
SWIDTH 733 0
DWIDTH 11 0
BBX 11 19 0 -4
BITMAP
0000
0000
0000
0FC0
1CC0
3840
3800
3C00
1F00
0F80
03C0
01C0
21C0
3380
3F00
0000
0000
0000
0000
ENDCHAR

STARTCHAR T
ENCODING 84
SWIDTH 733 0
DWIDTH 11 0
BBX 11 19 0 -4
BITMAP
0000
0000
0000
7FC0
6EC0
4E40
0E00
0E00
0E00
0E00
0E00
0E00
0E00
0E00
1F00
0000
0000
0000
0000
ENDCHAR

STARTCHAR U
ENCODING 85
SWIDTH 733 0
DWIDTH 11 0
BBX 11 19 0 -4
BITMAP
0000
0000
0000
7DE0
38C0
38C0
38C0
38C0
38C0
38C0
38C0
38C0
38C0
1D80
0F00
0000
0000
0000
0000
ENDCHAR

STARTCHAR V
ENCODING 86
SWIDTH 733 0
DWIDTH 11 0
BBX 11 19 0 -4
BITMAP
0000
0000
0000
F9E0
70C0
7080
3180
3900
3900
1B00
1E00
1E00
0E00
0C00
0C00
0000
0000
0000
0000
ENDCHAR

STARTCHAR W
ENCODING 87
SWIDTH 733 0
DWIDTH 11 0
BBX 11 19 0 -4
BITMAP
0000
0000
0000
F0E0
6040
6040
6040
3680
3680
3680
3680
1B00
1B00
1B00
1B00
0000
0000
0000
0000
ENDCHAR

STARTCHAR X
ENCODING 88
SWIDTH 733 0
DWIDTH 11 0
BBX 11 19 0 -4
BITMAP
0000
0000
0000
7DE0
38C0
1980
1D00
0F00
0600
0F00
0B00
1B80
1980
31C0
7BE0
0000
0000
0000
0000
ENDCHAR

STARTCHAR Y
ENCODING 89
SWIDTH 733 0
DWIDTH 11 0
BBX 11 19 0 -4
BITMAP
0000
0000
0000
7DE0
38C0
1880
1D80
0D00
0F00
0600
0600
0600
0600
0600
1F80
0000
0000
0000
0000
ENDCHAR

STARTCHAR Z
ENCODING 90
SWIDTH 733 0
DWIDTH 11 0
BBX 11 19 0 -4
BITMAP
0000
0000
0000
7FE0
6060
40E0
01C0
0380
0700
0E00
1C00
3800
7020
7060
7FE0
0000
0000
0000
0000
ENDCHAR

STARTCHAR OpenBracket
ENCODING 91
SWIDTH 733 0
DWIDTH 11 0
BBX 11 19 0 -4
BITMAP
0000
1F80
1C00
1C00
1C00
1C00
1C00
1C00
1C00
1C00
1C00
1C00
1C00
1C00
1C00
1C00
1F80
0000
0000
ENDCHAR

STARTCHAR BackSlash
ENCODING 92
SWIDTH 733 0
DWIDTH 11 0
BBX 11 19 0 -4
BITMAP
0000
6000
6000
3000
3000
1800
1800
0C00
0C00
0600
0600
0300
0300
0180
0180
00C0
00C0
0000
0000
ENDCHAR

STARTCHAR CloseBracket
ENCODING 93
SWIDTH 733 0
DWIDTH 11 0
BBX 11 19 0 -4
BITMAP
0000
1F80
0380
0380
0380
0380
0380
0380
0380
0380
0380
0380
0380
0380
0380
0380
1F80
0000
0000
ENDCHAR

STARTCHAR Circumflex
ENCODING 94
SWIDTH 733 0
DWIDTH 11 0
BBX 11 19 0 -4
BITMAP
0000
0000
0000
0400
0E00
1F00
3180
0000
0000
0000
0000
0000
0000
0000
0000
0000
0000
0000
0000
ENDCHAR

STARTCHAR Underscore
ENCODING 95
SWIDTH 733 0
DWIDTH 11 0
BBX 11 19 0 -4
BITMAP
0000
0000
0000
0000
0000
0000
0000
0000
0000
0000
0000
0000
0000
0000
0000
FFE0
FFE0
0000
0000
ENDCHAR

STARTCHAR SingleOpenQuot
ENCODING 96
SWIDTH 733 0
DWIDTH 11 0
BBX 11 19 0 -4
BITMAP
0000
0000
0300
0600
0C00
0E00
0E00
0400
0000
0000
0000
0000
0000
0000
0000
0000
0000
0000
0000
ENDCHAR

STARTCHAR a
ENCODING 97
SWIDTH 733 0
DWIDTH 11 0
BBX 11 19 0 -4
BITMAP
0000
0000
0000
0000
0000
0000
0000
1F80
31C0
01C0
1FC0
31C0
71C0
73C0
3CE0
0000
0000
0000
0000
ENDCHAR

STARTCHAR b
ENCODING 98
SWIDTH 733 0
DWIDTH 11 0
BBX 11 19 0 -4
BITMAP
0000
0000
0000
1800
7800
3800
3800
3B80
3CC0
38E0
38E0
38E0
38E0
3CC0
3380
0000
0000
0000
0000
ENDCHAR

STARTCHAR c
ENCODING 99
SWIDTH 733 0
DWIDTH 11 0
BBX 11 19 0 -4
BITMAP
0000
0000
0000
0000
0000
0000
0000
0FC0
18C0
38C0
3800
3800
3800
1CC0
0F80
0000
0000
0000
0000
ENDCHAR

STARTCHAR d
ENCODING 100
SWIDTH 733 0
DWIDTH 11 0
BBX 11 19 0 -4
BITMAP
0000
0000
0000
00C0
03C0
01C0
01C0
1DC0
33C0
71C0
71C0
71C0
71C0
33C0
1CE0
0000
0000
0000
0000
ENDCHAR

STARTCHAR e
ENCODING 101
SWIDTH 733 0
DWIDTH 11 0
BBX 11 19 0 -4
BITMAP
0000
0000
0000
0000
0000
0000
0000
0F00
1980
39C0
3FC0
3800
3800
18C0
0F80
0000
0000
0000
0000
ENDCHAR

STARTCHAR f
ENCODING 102
SWIDTH 733 0
DWIDTH 11 0
BBX 11 19 0 -4
BITMAP
0000
0000
0000
07C0
0E00
0E00
0E00
3FC0
0E00
0E00
0E00
0E00
0E00
0E00
3FC0
0000
0000
0000
0000
ENDCHAR

STARTCHAR g
ENCODING 103
SWIDTH 733 0
DWIDTH 11 0
BBX 11 19 0 -4
BITMAP
0000
0000
0000
0000
0000
0000
0000
3EC0
67C0
6300
7300
3E00
7000
3F80
7FC0
61C0
7180
3F00
0000
ENDCHAR

STARTCHAR h
ENCODING 104
SWIDTH 733 0
DWIDTH 11 0
BBX 11 19 0 -4
BITMAP
0000
0000
0000
1800
7800
3800
3800
3B80
3DC0
39C0
39C0
39C0
39C0
39C0
7BE0
0000
0000
0000
0000
ENDCHAR

STARTCHAR i
ENCODING 105
SWIDTH 733 0
DWIDTH 11 0
BBX 11 19 0 -4
BITMAP
0000
0000
0000
0C00
1E00
0C00
0000
0E00
3E00
0E00
0E00
0E00
0E00
0E00
3F80
0000
0000
0000
0000
ENDCHAR

STARTCHAR j
ENCODING 106
SWIDTH 733 0
DWIDTH 11 0
BBX 11 19 0 -4
BITMAP
0000
0000
0000
0600
0F00
0600
0000
0300
0F00
0700
0700
0700
0700
0700
0700
0700
6700
3E00
0000
ENDCHAR

STARTCHAR k
ENCODING 107
SWIDTH 733 0
DWIDTH 11 0
BBX 11 19 0 -4
BITMAP
0000
0000
0000
1800
7800
3800
3800
39C0
3980
3B00
3E00
3F00
3B80
39C0
7CE0
0000
0000
0000
0000
ENDCHAR

STARTCHAR l
ENCODING 108
SWIDTH 733 0
DWIDTH 11 0
BBX 11 19 0 -4
BITMAP
0000
0000
0000
1E00
0E00
0E00
0E00
0E00
0E00
0E00
0E00
0E00
0E00
0E00
3F80
0000
0000
0000
0000
ENDCHAR

STARTCHAR m
ENCODING 109
SWIDTH 733 0
DWIDTH 11 0
BBX 11 19 0 -4
BITMAP
0000
0000
0000
0000
0000
0000
0000
6CC0
F760
6660
6660
6660
6660
6660
EEE0
0000
0000
0000
0000
ENDCHAR

STARTCHAR n
ENCODING 110
SWIDTH 733 0
DWIDTH 11 0
BBX 11 19 0 -4
BITMAP
0000
0000
0000
0000
0000
0000
0000
3380
7DC0
39C0
39C0
39C0
39C0
39C0
7BE0
0000
0000
0000
0000
ENDCHAR

STARTCHAR o
ENCODING 111
SWIDTH 733 0
DWIDTH 11 0
BBX 11 19 0 -4
BITMAP
0000
0000
0000
0000
0000
0000
0000
0F00
1980
39C0
39C0
39C0
39C0
1980
0F00
0000
0000
0000
0000
ENDCHAR

STARTCHAR p
ENCODING 112
SWIDTH 733 0
DWIDTH 11 0
BBX 11 19 0 -4
BITMAP
0000
0000
0000
0000
0000
0000
0000
1B80
7CC0
38E0
38E0
38E0
38E0
3CC0
3B80
3800
3800
7E00
0000
ENDCHAR

STARTCHAR q
ENCODING 113
SWIDTH 733 0
DWIDTH 11 0
BBX 11 19 0 -4
BITMAP
0000
0000
0000
0000
0000
0000
0000
1EC0
31C0
71C0
71C0
71C0
71C0
33C0
1DC0
01C0
01C0
07E0
0000
ENDCHAR

STARTCHAR r
ENCODING 114
SWIDTH 733 0
DWIDTH 11 0
BBX 11 19 0 -4
BITMAP
0000
0000
0000
0000
0000
0000
0000
0CC0
3DE0
1EC0
1C00
1C00
1C00
1C00
3F00
0000
0000
0000
0000
ENDCHAR

STARTCHAR s
ENCODING 115
SWIDTH 733 0
DWIDTH 11 0
BBX 11 19 0 -4
BITMAP
0000
0000
0000
0000
0000
0000
0000
1FC0
38C0
3C40
1F00
0780
23C0
31C0
3F80
0000
0000
0000
0000
ENDCHAR

STARTCHAR t
ENCODING 116
SWIDTH 733 0
DWIDTH 11 0
BBX 11 19 0 -4
BITMAP
0000
0000
0000
0000
0C00
1C00
1C00
7FC0
1C00
1C00
1C00
1C00
1C00
1C60
0FC0
0000
0000
0000
0000
ENDCHAR

STARTCHAR u
ENCODING 117
SWIDTH 733 0
DWIDTH 11 0
BBX 11 19 0 -4
BITMAP
0000
0000
0000
0000
0000
0000
0000
18C0
7BC0
39C0
39C0
39C0
39C0
3BE0
1CC0
0000
0000
0000
0000
ENDCHAR

STARTCHAR v
ENCODING 118
SWIDTH 733 0
DWIDTH 11 0
BBX 11 19 0 -4
BITMAP
0000
0000
0000
0000
0000
0000
0000
F9E0
70C0
3880
3980
1D00
1F00
0E00
0E00
0000
0000
0000
0000
ENDCHAR

STARTCHAR w
ENCODING 119
SWIDTH 733 0
DWIDTH 11 0
BBX 11 19 0 -4
BITMAP
0000
0000
0000
0000
0000
0000
0000
F9E0
70C0
76C0
7680
3F80
3B80
3B00
3B00
0000
0000
0000
0000
ENDCHAR

STARTCHAR x
ENCODING 120
SWIDTH 733 0
DWIDTH 11 0
BBX 11 19 0 -4
BITMAP
0000
0000
0000
0000
0000
0000
0000
7DE0
38C0
1D80
0F00
0F00
1B80
31C0
7BE0
0000
0000
0000
0000
ENDCHAR

STARTCHAR y
ENCODING 121
SWIDTH 733 0
DWIDTH 11 0
BBX 11 19 0 -4
BITMAP
0000
0000
0000
0000
0000
0000
0000
7CE0
3840
1CC0
1C80
0F80
0F00
0700
0600
2600
7C00
3800
0000
ENDCHAR

STARTCHAR z
ENCODING 122
SWIDTH 733 0
DWIDTH 11 0
BBX 11 19 0 -4
BITMAP
0000
0000
0000
0000
0000
0000
0000
3FC0
31C0
2380
0700
0E00
1C40
38C0
7FC0
0000
0000
0000
0000
ENDCHAR

STARTCHAR OpenBrace
ENCODING 123
SWIDTH 733 0
DWIDTH 11 0
BBX 11 19 0 -4
BITMAP
0000
03C0
0700
0700
0700
0700
0700
0E00
3C00
0E00
0700
0700
0700
0700
0700
0700
03C0
0000
0000
ENDCHAR

STARTCHAR LongVertMark
ENCODING 124
SWIDTH 733 0
DWIDTH 11 0
BBX 11 19 0 -4
BITMAP
0000
0000
0600
0600
0600
0600
0600
0600
0600
0600
0600
0600
0600
0600
0600
0600
0000
0000
0000
ENDCHAR

STARTCHAR CloseBrace
ENCODING 125
SWIDTH 733 0
DWIDTH 11 0
BBX 11 19 0 -4
BITMAP
0000
1E00
0700
0700
0700
0700
0700
0380
01E0
0380
0700
0700
0700
0700
0700
0700
1E00
0000
0000
ENDCHAR

STARTCHAR OneWavyLine
ENCODING 126
SWIDTH 733 0
DWIDTH 11 0
BBX 11 19 0 -4
BITMAP
0000
0000
0000
0000
0000
0000
0000
3840
7E40
4FC0
4380
0000
0000
0000
0000
0000
0000
0000
0000
ENDCHAR

STARTCHAR MediumShading
ENCODING 127
SWIDTH 733 0
DWIDTH 11 0
BBX 11 19 0 -4
BITMAP
CCC0
CCC0
3320
3320
CCC0
CCC0
3320
3320
CCC0
CCC0
3320
3320
CCC0
CCC0
3320
3320
CCC0
CCC0
3320
ENDCHAR

STARTCHAR Agrave
ENCODING 161
SWIDTH 733 0
DWIDTH 11 0
BBX 11 19 0 -4
BITMAP
7000
3800
0C00
0000
0E00
0E00
0F00
1F00
1700
1380
3F80
3380
21C0
61C0
F3E0
0000
0000
0000
0000
ENDCHAR

STARTCHAR Acircumflex
ENCODING 162
SWIDTH 733 0
DWIDTH 11 0
BBX 11 19 0 -4
BITMAP
0C00
1E00
3300
0000
0E00
0E00
0F00
1F00
1700
1380
3F80
3380
21C0
61C0
F3E0
0000
0000
0000
0000
ENDCHAR

STARTCHAR Egrave
ENCODING 163
SWIDTH 733 0
DWIDTH 11 0
BBX 11 19 0 -4
BITMAP
3800
1C00
0600
0000
7FC0
38C0
3840
3800
3900
3F00
3900
3800
3840
38C0
7FC0
0000
0000
0000
0000
ENDCHAR

STARTCHAR Ecircumflex
ENCODING 164
SWIDTH 733 0
DWIDTH 11 0
BBX 11 19 0 -4
BITMAP
0C00
1E00
3300
0000
7FC0
38C0
3840
3800
3900
3F00
3900
3800
3840
38C0
7FC0
0000
0000
0000
0000
ENDCHAR

STARTCHAR Ediaeresis
ENCODING 165
SWIDTH 733 0
DWIDTH 11 0
BBX 11 19 0 -4
BITMAP
0000
1980
1980
0000
7FC0
38C0
3840
3800
3900
3F00
3900
3800
3840
38C0
7FC0
0000
0000
0000
0000
ENDCHAR

STARTCHAR Icircumflex
ENCODING 166
SWIDTH 733 0
DWIDTH 11 0
BBX 11 19 0 -4
BITMAP
0600
0F00
1980
0000
3F80
0E00
0E00
0E00
0E00
0E00
0E00
0E00
0E00
0E00
3F80
0000
0000
0000
0000
ENDCHAR

STARTCHAR Idiaeresis
ENCODING 167
SWIDTH 733 0
DWIDTH 11 0
BBX 11 19 0 -4
BITMAP
0000
1B00
1B00
0000
3F80
0E00
0E00
0E00
0E00
0E00
0E00
0E00
0E00
0E00
3F80
0000
0000
0000
0000
ENDCHAR

STARTCHAR acuteAccent
ENCODING 168
SWIDTH 733 0
DWIDTH 11 0
BBX 11 19 0 -4
BITMAP
0000
0000
0000
0700
0E00
1800
0000
0000
0000
0000
0000
0000
0000
0000
0000
0000
0000
0000
0000
ENDCHAR

STARTCHAR graveAccent
ENCODING 169
SWIDTH 733 0
DWIDTH 11 0
BBX 11 19 0 -4
BITMAP
0000
0000
0000
1C00
0E00
0300
0000
0000
0000
0000
0000
0000
0000
0000
0000
0000
0000
0000
0000
ENDCHAR

STARTCHAR circumflexAcct
ENCODING 170
SWIDTH 733 0
DWIDTH 11 0
BBX 11 19 0 -4
BITMAP
0000
0000
0000
0600
0F00
1980
0000
0000
0000
0000
0000
0000
0000
0000
0000
0000
0000
0000
0000
ENDCHAR

STARTCHAR diaeresisAccnt
ENCODING 171
SWIDTH 733 0
DWIDTH 11 0
BBX 11 19 0 -4
BITMAP
0000
0000
0000
1980
1980
0000
0000
0000
0000
0000
0000
0000
0000
0000
0000
0000
0000
0000
0000
ENDCHAR

STARTCHAR tildeAccent
ENCODING 172
SWIDTH 733 0
DWIDTH 11 0
BBX 11 19 0 -4
BITMAP
0000
0000
0000
3C20
4F20
43C0
0000
0000
0000
0000
0000
0000
0000
0000
0000
0000
0000
0000
0000
ENDCHAR

STARTCHAR Ugrave
ENCODING 173
SWIDTH 733 0
DWIDTH 11 0
BBX 11 19 0 -4
BITMAP
3800
1C00
0600
0000
7DE0
38C0
38C0
38C0
38C0
38C0
38C0
38C0
38C0
1D80
0F00
0000
0000
0000
0000
ENDCHAR

STARTCHAR Ucircumflex
ENCODING 174
SWIDTH 733 0
DWIDTH 11 0
BBX 11 19 0 -4
BITMAP
0600
0F00
1980
0000
7DE0
38C0
38C0
38C0
38C0
38C0
38C0
38C0
38C0
1D80
0F00
0000
0000
0000
0000
ENDCHAR

STARTCHAR ItalianLire
ENCODING 175
SWIDTH 733 0
DWIDTH 11 0
BBX 11 19 0 -4
BITMAP
0000
0000
0000
0F00
1980
3800
3800
3800
7E00
3800
7E00
3800
38C0
7FC0
6780
0000
0000
0000
0000
ENDCHAR

STARTCHAR Overline
ENCODING 176
SWIDTH 733 0
DWIDTH 11 0
BBX 11 19 0 -4
BITMAP
FFE0
FFE0
0000
0000
0000
0000
0000
0000
0000
0000
0000
0000
0000
0000
0000
0000
0000
0000
0000
ENDCHAR

STARTCHAR Yacute
ENCODING 177
SWIDTH 733 0
DWIDTH 11 0
BBX 11 19 0 -4
BITMAP
01C0
0380
0600
0000
7DE0
38C0
1880
1D80
0D00
0F00
0600
0600
0600
0600
0600
1F80
0000
0000
0000
ENDCHAR

STARTCHAR yacute
ENCODING 178
SWIDTH 733 0
DWIDTH 11 0
BBX 11 19 0 -4
BITMAP
0000
0000
0000
01C0
0380
0600
0000
7CE0
3840
1CC0
1C80
0F80
0F00
0700
0600
2600
7C00
3800
0000
ENDCHAR

STARTCHAR DegreeSign
ENCODING 179
SWIDTH 733 0
DWIDTH 11 0
BBX 11 19 0 -4
BITMAP
0000
0000
0000
0F00
1980
1980
1980
0F00
0000
0000
0000
0000
0000
0000
0000
0000
0000
0000
0000
ENDCHAR

STARTCHAR Ccedilla
ENCODING 180
SWIDTH 733 0
DWIDTH 11 0
BBX 11 19 0 -4
BITMAP
0000
0000
0000
0FC0
38C0
30C0
7000
7000
7000
7000
7000
7000
30C0
38C0
0F80
0200
0700
1380
0F00
ENDCHAR

STARTCHAR ccedilla
ENCODING 181
SWIDTH 733 0
DWIDTH 11 0
BBX 11 19 0 -4
BITMAP
0000
0000
0000
0000
0000
0000
0000
0FC0
18C0
38C0
3800
3800
3800
1CC0
0F80
0200
0700
1380
0F00
ENDCHAR

STARTCHAR Ntilde
ENCODING 182
SWIDTH 733 0
DWIDTH 11 0
BBX 11 19 0 -4
BITMAP
1C00
2E80
0700
0000
79E0
38C0
3CC0
3CC0
3EC0
36C0
37C0
33C0
33C0
31C0
79C0
0000
0000
0000
0000
ENDCHAR

STARTCHAR ntilde
ENCODING 183
SWIDTH 733 0
DWIDTH 11 0
BBX 11 19 0 -4
BITMAP
0000
0000
0000
1C00
2E80
0700
0000
3380
7DC0
39C0
39C0
39C0
39C0
39C0
7BE0
0000
0000
0000
0000
ENDCHAR

STARTCHAR InvExclamation
ENCODING 184
SWIDTH 733 0
DWIDTH 11 0
BBX 11 19 0 -4
BITMAP
0000
0000
0400
0E00
0E00
0400
0000
0000
0E00
0E00
0E00
0E00
0E00
0E00
0E00
0E00
0E00
0000
0000
ENDCHAR

STARTCHAR InvertQuestion
ENCODING 185
SWIDTH 733 0
DWIDTH 11 0
BBX 11 19 0 -4
BITMAP
0000
0000
0200
0700
0700
0200
0000
0200
0700
0700
0E00
1C00
3800
38C0
38C0
1DC0
0F80
0000
0000
ENDCHAR

STARTCHAR CurrencySymbol
ENCODING 186
SWIDTH 733 0
DWIDTH 11 0
BBX 11 19 0 -4
BITMAP
0000
0000
0000
2040
76E0
3FC0
1980
30C0
30C0
1980
3FC0
76E0
2040
0000
0000
0000
0000
0000
0000
ENDCHAR

STARTCHAR SterlingSign
ENCODING 187
SWIDTH 733 0
DWIDTH 11 0
BBX 11 19 0 -4
BITMAP
0000
0000
0000
0780
0CC0
1C00
1C00
1C00
3F00
1C00
1C00
1C00
1C60
3FE0
33C0
0000
0000
0000
0000
ENDCHAR

STARTCHAR Yensign
ENCODING 188
SWIDTH 733 0
DWIDTH 11 0
BBX 11 19 0 -4
BITMAP
0000
0000
0000
7DE0
38C0
1880
1D80
0D00
0F00
0600
3FC0
0600
3FC0
0600
0F00
0000
0000
0000
0000
ENDCHAR

STARTCHAR SectionMark
ENCODING 189
SWIDTH 733 0
DWIDTH 11 0
BBX 11 19 0 -4
BITMAP
0000
0000
0000
0780
09C0
0C80
0E00
0F00
1380
19C0
1CC0
0E40
0780
0380
0980
1C80
0F00
0000
0000
ENDCHAR

STARTCHAR FlorinSign
ENCODING 190
SWIDTH 733 0
DWIDTH 11 0
BBX 11 19 0 -4
BITMAP
0000
0000
0000
0380
06C0
0E00
0E00
0E00
3F80
0E00
0E00
0E00
0E00
0E00
0E00
0E00
6C00
3800
0000
ENDCHAR

STARTCHAR CentSign
ENCODING 191
SWIDTH 733 0
DWIDTH 11 0
BBX 11 19 0 -4
BITMAP
0000
0000
0000
0000
0600
0600
0FC0
18C0
38C0
3800
3800
38C0
1CC0
0F80
0600
0600
0000
0000
0000
ENDCHAR

STARTCHAR acircumflex
ENCODING 192
SWIDTH 733 0
DWIDTH 11 0
BBX 11 19 0 -4
BITMAP
0000
0000
0000
0600
0F00
1980
0000
1F80
31C0
01C0
1FC0
31C0
71C0
73C0
3CE0
0000
0000
0000
0000
ENDCHAR

STARTCHAR ecircumflex
ENCODING 193
SWIDTH 733 0
DWIDTH 11 0
BBX 11 19 0 -4
BITMAP
0000
0000
0000
0600
0F00
1980
0000
0F00
1980
39C0
3FC0
3800
3800
18C0
0F80
0000
0000
0000
0000
ENDCHAR

STARTCHAR ocircumflex
ENCODING 194
SWIDTH 733 0
DWIDTH 11 0
BBX 11 19 0 -4
BITMAP
0000
0000
0000
0600
0F00
1980
0000
0F00
1980
39C0
39C0
39C0
39C0
1980
0F00
0000
0000
0000
0000
ENDCHAR

STARTCHAR ucircumflex
ENCODING 195
SWIDTH 733 0
DWIDTH 11 0
BBX 11 19 0 -4
BITMAP
0000
0000
0000
0600
0F00
1980
0000
18C0
7BC0
39C0
39C0
39C0
39C0
3BE0
1CC0
0000
0000
0000
0000
ENDCHAR

STARTCHAR aacute
ENCODING 196
SWIDTH 733 0
DWIDTH 11 0
BBX 11 19 0 -4
BITMAP
0000
0000
0000
01C0
0380
0600
0000
1F80
31C0
01C0
1FC0
31C0
71C0
73C0
3CE0
0000
0000
0000
0000
ENDCHAR

STARTCHAR eacute
ENCODING 197
SWIDTH 733 0
DWIDTH 11 0
BBX 11 19 0 -4
BITMAP
0000
0000
0000
01C0
0380
0600
0000
0F00
1980
39C0
3FC0
3800
3800
18C0
0F80
0000
0000
0000
0000
ENDCHAR

STARTCHAR oacute
ENCODING 198
SWIDTH 733 0
DWIDTH 11 0
BBX 11 19 0 -4
BITMAP
0000
0000
0000
01C0
0380
0600
0000
0F00
1980
39C0
39C0
39C0
39C0
1980
0F00
0000
0000
0000
0000
ENDCHAR

STARTCHAR uacute
ENCODING 199
SWIDTH 733 0
DWIDTH 11 0
BBX 11 19 0 -4
BITMAP
0000
0000
0000
01C0
0380
0600
0000
18C0
7BC0
39C0
39C0
39C0
39C0
3BE0
1CC0
0000
0000
0000
0000
ENDCHAR

STARTCHAR agrave
ENCODING 200
SWIDTH 733 0
DWIDTH 11 0
BBX 11 19 0 -4
BITMAP
0000
0000
0000
3800
1C00
0600
0000
1F80
31C0
01C0
1FC0
31C0
71C0
73C0
3CE0
0000
0000
0000
0000
ENDCHAR

STARTCHAR egrave
ENCODING 201
SWIDTH 733 0
DWIDTH 11 0
BBX 11 19 0 -4
BITMAP
0000
0000
0000
1C00
0E00
0300
0000
0F00
1980
39C0
3FC0
3800
3800
18C0
0F80
0000
0000
0000
0000
ENDCHAR

STARTCHAR ograve
ENCODING 202
SWIDTH 733 0
DWIDTH 11 0
BBX 11 19 0 -4
BITMAP
0000
0000
0000
3800
1C00
0600
0000
0F00
1980
39C0
39C0
39C0
39C0
1980
0F00
0000
0000
0000
0000
ENDCHAR

STARTCHAR ugrave
ENCODING 203
SWIDTH 733 0
DWIDTH 11 0
BBX 11 19 0 -4
BITMAP
0000
0000
0000
3800
1C00
0600
0000
18C0
7BC0
39C0
39C0
39C0
39C0
3BE0
1CC0
0000
0000
0000
0000
ENDCHAR

STARTCHAR adiaeresis
ENCODING 204
SWIDTH 733 0
DWIDTH 11 0
BBX 11 19 0 -4
BITMAP
0000
0000
0000
1980
1980
0000
0000
1F80
31C0
01C0
1FC0
31C0
71C0
73C0
3CE0
0000
0000
0000
0000
ENDCHAR

STARTCHAR ediaeresis
ENCODING 205
SWIDTH 733 0
DWIDTH 11 0
BBX 11 19 0 -4
BITMAP
0000
0000
0000
1980
1980
0000
0000
0F00
1980
39C0
3FC0
3800
3800
18C0
0F80
0000
0000
0000
0000
ENDCHAR

STARTCHAR odiaeresis
ENCODING 206
SWIDTH 733 0
DWIDTH 11 0
BBX 11 19 0 -4
BITMAP
0000
0000
0000
1980
1980
0000
0000
0F00
1980
39C0
39C0
39C0
39C0
1980
0F00
0000
0000
0000
0000
ENDCHAR

STARTCHAR udiaeresis
ENCODING 207
SWIDTH 733 0
DWIDTH 11 0
BBX 11 19 0 -4
BITMAP
0000
0000
0000
1980
1980
0000
0000
18C0
7BC0
39C0
39C0
39C0
39C0
3BE0
1CC0
0000
0000
0000
0000
ENDCHAR

STARTCHAR Abolle
ENCODING 208
SWIDTH 733 0
DWIDTH 11 0
BBX 11 19 0 -4
BITMAP
0E00
1B00
1100
1B00
0E00
0E00
0F00
1F00
1700
1380
3F80
3380
21C0
61C0
F3E0
0000
0000
0000
0000
ENDCHAR

STARTCHAR icircumflex
ENCODING 209
SWIDTH 733 0
DWIDTH 11 0
BBX 11 19 0 -4
BITMAP
0000
0000
0000
0C00
1E00
3300
0000
0E00
3E00
0E00
0E00
0E00
0E00
0E00
3F80
0000
0000
0000
0000
ENDCHAR

STARTCHAR Ooblique
ENCODING 210
SWIDTH 733 0
DWIDTH 11 0
BBX 11 19 0 -4
BITMAP
0000
0080
0080
0F80
39C0
31C0
73E0
72E0
72E0
76E0
74E0
74E0
3CC0
39C0
1F00
0800
0800
0000
0000
ENDCHAR

STARTCHAR AEdiphthong
ENCODING 211
SWIDTH 733 0
DWIDTH 11 0
BBX 11 19 0 -4
BITMAP
0000
0000
0000
1FE0
0E60
1E20
1600
1640
37C0
2640
3E00
6600
4620
4660
EFE0
0000
0000
0000
0000
ENDCHAR

STARTCHAR abolle
ENCODING 212
SWIDTH 733 0
DWIDTH 11 0
BBX 11 19 0 -4
BITMAP
0000
0E00
1B00
1B00
1B00
0E00
0000
1F80
31C0
01C0
1FC0
31C0
71C0
73C0
3CE0
0000
0000
0000
0000
ENDCHAR

STARTCHAR iacute
ENCODING 213
SWIDTH 733 0
DWIDTH 11 0
BBX 11 19 0 -4
BITMAP
0000
0000
0000
0380
0700
0C00
0000
0E00
3E00
0E00
0E00
0E00
0E00
0E00
3F80
0000
0000
0000
0000
ENDCHAR

STARTCHAR ooblique
ENCODING 214
SWIDTH 733 0
DWIDTH 11 0
BBX 11 19 0 -4
BITMAP
0000
0000
0000
0000
0000
0080
0080
0F00
1980
3BC0
3BC0
3DC0
3DC0
1980
0F00
1000
1000
0000
0000
ENDCHAR

STARTCHAR aedihthong
ENCODING 215
SWIDTH 733 0
DWIDTH 11 0
BBX 11 19 0 -4
BITMAP
0000
0000
0000
0000
0000
0000
0000
7BC0
CE60
0E60
7FE0
CE00
CE00
DF60
73C0
0000
0000
0000
0000
ENDCHAR

STARTCHAR Adiaeresis
ENCODING 216
SWIDTH 733 0
DWIDTH 11 0
BBX 11 19 0 -4
BITMAP
1B00
1B00
0000
0E00
0E00
0E00
1F00
1700
1700
3380
3F80
2380
61C0
61C0
F3E0
0000
0000
0000
0000
ENDCHAR

STARTCHAR igrave
ENCODING 217
SWIDTH 733 0
DWIDTH 11 0
BBX 11 19 0 -4
BITMAP
0000
0000
0000
3800
1C00
0600
0000
0E00
3E00
0E00
0E00
0E00
0E00
0E00
3F80
0000
0000
0000
0000
ENDCHAR

STARTCHAR Odiaeresis
ENCODING 218
SWIDTH 733 0
DWIDTH 11 0
BBX 11 19 0 -4
BITMAP
0000
1980
1980
0000
0F00
39C0
30C0
70E0
70E0
70E0
70E0
70E0
30C0
39C0
0F00
0000
0000
0000
0000
ENDCHAR

STARTCHAR Udiaeresis
ENCODING 219
SWIDTH 733 0
DWIDTH 11 0
BBX 11 19 0 -4
BITMAP
1980
1980
0000
7DE0
38C0
38C0
38C0
38C0
38C0
38C0
38C0
38C0
38C0
1D80
0F00
0000
0000
0000
0000
ENDCHAR

STARTCHAR Eacute
ENCODING 220
SWIDTH 733 0
DWIDTH 11 0
BBX 11 19 0 -4
BITMAP
0380
0700
0C00
0000
7FC0
38C0
3840
3800
3900
3F00
3900
3800
3840
38C0
7FC0
0000
0000
0000
0000
ENDCHAR

STARTCHAR idiaeresis
ENCODING 221
SWIDTH 733 0
DWIDTH 11 0
BBX 11 19 0 -4
BITMAP
0000
0000
0000
3300
3300
0000
0000
0E00
3E00
0E00
0E00
0E00
0E00
0E00
3F80
0000
0000
0000
0000
ENDCHAR

STARTCHAR EsZetLigature
ENCODING 222
SWIDTH 733 0
DWIDTH 11 0
BBX 11 19 0 -4
BITMAP
0000
0000
0000
1F00
3380
3380
3380
3300
3780
31C0
30E0
30E0
36E0
36C0
3380
3000
7000
0000
0000
ENDCHAR

STARTCHAR Ocircumflex
ENCODING 223
SWIDTH 733 0
DWIDTH 11 0
BBX 11 19 0 -4
BITMAP
0600
0F00
1980
0000
0F00
39C0
30C0
70E0
70E0
70E0
70E0
70E0
30C0
39C0
0F00
0000
0000
0000
0000
ENDCHAR

STARTCHAR Aacute
ENCODING 224
SWIDTH 733 0
DWIDTH 11 0
BBX 11 19 0 -4
BITMAP
01C0
0380
0600
0000
0E00
0E00
0F00
1F00
1700
1380
3F80
3380
21C0
61C0
F3E0
0000
0000
0000
0000
ENDCHAR

STARTCHAR Atilde
ENCODING 225
SWIDTH 733 0
DWIDTH 11 0
BBX 11 19 0 -4
BITMAP
1C00
2E80
0700
0000
0E00
0E00
0F00
1F00
1700
1380
3F80
3380
21C0
61C0
F3E0
0000
0000
0000
0000
ENDCHAR

STARTCHAR atilde
ENCODING 226
SWIDTH 733 0
DWIDTH 11 0
BBX 11 19 0 -4
BITMAP
0000
0000
0000
0E00
1740
0380
0000
1F80
31C0
01C0
1FC0
31C0
71C0
73C0
3CE0
0000
0000
0000
0000
ENDCHAR

STARTCHAR Eth
ENCODING 227
SWIDTH 733 0
DWIDTH 11 0
BBX 11 19 0 -4
BITMAP
0000
0000
0000
7F00
39C0
38C0
38E0
38E0
7EE0
38E0
38E0
38E0
38C0
39C0
7F00
0000
0000
0000
0000
ENDCHAR

STARTCHAR ethIcelandic
ENCODING 228
SWIDTH 733 0
DWIDTH 11 0
BBX 11 19 0 -4
BITMAP
0000
0000
3080
1F00
0E00
1B00
2300
0F80
1980
39C0
39C0
39C0
39C0
1980
0F00
0000
0000
0000
0000
ENDCHAR

STARTCHAR Iacute
ENCODING 229
SWIDTH 733 0
DWIDTH 11 0
BBX 11 19 0 -4
BITMAP
0380
0700
0C00
0000
3F80
0E00
0E00
0E00
0E00
0E00
0E00
0E00
0E00
0E00
3F80
0000
0000
0000
0000
ENDCHAR

STARTCHAR Igrave
ENCODING 230
SWIDTH 733 0
DWIDTH 11 0
BBX 11 19 0 -4
BITMAP
3800
1C00
0600
0000
3F80
0E00
0E00
0E00
0E00
0E00
0E00
0E00
0E00
0E00
3F80
0000
0000
0000
0000
ENDCHAR

STARTCHAR Oacute
ENCODING 231
SWIDTH 733 0
DWIDTH 11 0
BBX 11 19 0 -4
BITMAP
01C0
0380
0600
0000
0F00
39C0
30C0
70E0
70E0
70E0
70E0
70E0
30C0
39C0
0F00
0000
0000
0000
0000
ENDCHAR

STARTCHAR Ograve
ENCODING 232
SWIDTH 733 0
DWIDTH 11 0
BBX 11 19 0 -4
BITMAP
3800
1C00
0600
0000
0F00
39C0
30C0
70E0
70E0
70E0
70E0
70E0
30C0
39C0
0F00
0000
0000
0000
0000
ENDCHAR

STARTCHAR Otilde
ENCODING 233
SWIDTH 733 0
DWIDTH 11 0
BBX 11 19 0 -4
BITMAP
0E00
1740
0380
0000
0F00
39C0
30C0
70E0
70E0
70E0
70E0
70E0
30C0
39C0
0F00
0000
0000
0000
0000
ENDCHAR

STARTCHAR otilde
ENCODING 234
SWIDTH 733 0
DWIDTH 11 0
BBX 11 19 0 -4
BITMAP
0000
0000
0000
0E00
1740
0380
0000
0F00
1980
39C0
39C0
39C0
39C0
1980
0F00
0000
0000
0000
0000
ENDCHAR

STARTCHAR Shacek
ENCODING 235
SWIDTH 733 0
DWIDTH 11 0
BBX 11 19 0 -4
BITMAP
1980
0F00
0600
0FC0
1CC0
3840
3800
3C00
1F00
0F80
03C0
01C0
21C0
3380
3F00
0000
0000
0000
0000
ENDCHAR

STARTCHAR shacek
ENCODING 236
SWIDTH 733 0
DWIDTH 11 0
BBX 11 19 0 -4
BITMAP
0000
0000
0000
1980
0F00
0600
0000
1FC0
38C0
3C40
1F00
0780
23C0
31C0
3F80
0000
0000
0000
0000
ENDCHAR

STARTCHAR Uacute
ENCODING 237
SWIDTH 733 0
DWIDTH 11 0
BBX 11 19 0 -4
BITMAP
01C0
0380
0600
0000
7DE0
38C0
38C0
38C0
38C0
38C0
38C0
38C0
38C0
1D80
0F00
0000
0000
0000
0000
ENDCHAR

STARTCHAR Ydiaeresis
ENCODING 238
SWIDTH 733 0
DWIDTH 11 0
BBX 11 19 0 -4
BITMAP
1980
1980
0000
7DE0
38C0
1880
1D80
0D00
0F00
0600
0600
0600
0600
0600
1F80
0000
0000
0000
0000
ENDCHAR

STARTCHAR ydiaeresis
ENCODING 239
SWIDTH 733 0
DWIDTH 11 0
BBX 11 19 0 -4
BITMAP
0000
0000
0000
0CC0
0CC0
0000
0000
7CE0
3840
1CC0
1C80
0F80
0F00
0700
0600
2600
7C00
3800
0000
ENDCHAR

STARTCHAR Thorn
ENCODING 240
SWIDTH 733 0
DWIDTH 11 0
BBX 11 19 0 -4
BITMAP
0000
0000
0000
7C00
3800
3F80
39C0
38E0
38E0
38E0
39C0
3F80
3800
3800
7C00
0000
0000
0000
0000
ENDCHAR

STARTCHAR thorn
ENCODING 241
SWIDTH 733 0
DWIDTH 11 0
BBX 11 19 0 -4
BITMAP
0000
0000
0000
1800
7800
3800
3800
3B80
3DC0
38E0
38E0
38E0
38E0
3DC0
3B80
3800
3800
7E00
0000
ENDCHAR

STARTCHAR middleDot
ENCODING 242
SWIDTH 733 0
DWIDTH 11 0
BBX 11 19 0 -4
BITMAP
0000
0000
0000
0000
0000
0000
0000
0400
0E00
0E00
0400
0000
0000
0000
0000
0000
0000
0000
0000
ENDCHAR

STARTCHAR muGreek
ENCODING 243
SWIDTH 733 0
DWIDTH 11 0
BBX 11 19 0 -4
BITMAP
0000
0000
0000
0000
0000
0000
0000
0C60
0C60
0C60
18C0
18C0
18C0
3DE0
3760
3000
6000
6000
0000
ENDCHAR

STARTCHAR ParagraphSign
ENCODING 244
SWIDTH 733 0
DWIDTH 11 0
BBX 11 19 0 -4
BITMAP
0000
0000
0000
1F80
3D00
7D00
7D00
7D00
7D00
3D00
1D00
0500
0500
0500
0500
0500
0000
0000
0000
ENDCHAR

STARTCHAR FracThreeFour
ENCODING 245
SWIDTH 733 0
DWIDTH 11 0
BBX 11 19 0 -4
BITMAP
7800
DC00
1C00
7820
1C60
1CC0
DD80
7B00
0600
0D00
1900
3300
6240
C6C0
8EC0
0FE0
00C0
00C0
0000
ENDCHAR

STARTCHAR MinusSign
ENCODING 246
SWIDTH 733 0
DWIDTH 11 0
BBX 11 19 0 -4
BITMAP
0000
0000
0000
0000
0000
0000
0000
0000
7FE0
7FE0
0000
0000
0000
0000
0000
0000
0000
0000
0000
ENDCHAR

STARTCHAR FracOneFourth
ENCODING 247
SWIDTH 733 0
DWIDTH 11 0
BBX 11 19 0 -4
BITMAP
0000
3000
7000
B020
3060
30C0
3180
3300
3600
0D00
1900
3300
6240
C6C0
8EC0
0FE0
00C0
00C0
0000
ENDCHAR

STARTCHAR FracOneHalf
ENCODING 248
SWIDTH 733 0
DWIDTH 11 0
BBX 11 19 0 -4
BITMAP
0000
3000
7000
B020
3060
30C0
3180
3300
3600
0C00
1BC0
3660
6660
C0C0
8180
0320
07E0
07E0
0000
ENDCHAR

STARTCHAR FemaleOrdinal
ENCODING 249
SWIDTH 733 0
DWIDTH 11 0
BBX 11 19 0 -4
BITMAP
0000
0000
1E00
0300
1F00
3300
3300
1E80
0000
3F80
0000
0000
0000
0000
0000
0000
0000
0000
0000
ENDCHAR

STARTCHAR MaleOrdinal
ENCODING 250
SWIDTH 733 0
DWIDTH 11 0
BBX 11 19 0 -4
BITMAP
0000
0000
1E00
3300
3300
3300
3300
1E00
0000
3F80
0000
0000
0000
0000
0000
0000
0000
0000
0000
ENDCHAR

STARTCHAR DblOpenAnglQut
ENCODING 251
SWIDTH 733 0
DWIDTH 11 0
BBX 11 19 0 -4
BITMAP
0000
0000
0000
0000
0420
0C60
1CE0
39C0
7380
7380
39C0
1CE0
0C60
0420
0000
0000
0000
0000
0000
ENDCHAR

STARTCHAR MedSolidSquare
ENCODING 252
SWIDTH 733 0
DWIDTH 11 0
BBX 11 19 0 -4
BITMAP
0000
0000
0000
0000
0000
7FC0
7FC0
7FC0
7FC0
7FC0
7FC0
7FC0
7FC0
7FC0
0000
0000
0000
0000
0000
ENDCHAR

STARTCHAR DblClosAnglQut
ENCODING 253
SWIDTH 733 0
DWIDTH 11 0
BBX 11 19 0 -4
BITMAP
0000
0000
0000
0000
4200
6300
7380
39C0
1CE0
1CE0
39C0
7380
6300
4200
0000
0000
0000
0000
0000
ENDCHAR

STARTCHAR PlusOverMinus
ENCODING 254
SWIDTH 733 0
DWIDTH 11 0
BBX 11 19 0 -4
BITMAP
0000
0000
0000
0000
0600
0600
3FC0
3FC0
0600
0600
0000
3FC0
3FC0
0000
0000
0000
0000
0000
0000
ENDCHAR
ENDFONT
